PathFileType	4	(X/Y/Z)	/Users/visionmauri/Downloads/Videos/OAW04-top_Sports2D/OAW04-top_Sports2D_px_person00.trc
DataRate	CameraRate	NumFrames	NumMarkers	Units	OrigDataRate	OrigDataStartFrame	OrigNumFrames
30.0	30.0	9	22	m	30.0	591	2367
Frame#	Time	Hip			RHip			RKnee			RAnkle			RBigToe			RSmallToe			RHeel			LHip			LKnee			LAnkle			LBigToe			LSmallToe			LHeel			Neck			Head			Nose			RShoulder			RElbow			RWrist			LShoulder			LElbow			LWrist			
		X1	Y1	Z1	X2	Y2	Z2	X3	Y3	Z3	X4	Y4	Z4	X5	Y5	Z5	X6	Y6	Z6	X7	Y7	Z7	X8	Y8	Z8	X9	Y9	Z9	X10	Y10	Z10	X11	Y11	Z11	X12	Y12	Z12	X13	Y13	Z13	X14	Y14	Z14	X15	Y15	Z15	X16	Y16	Z16	X17	Y17	Z17	X18	Y18	Z18	X19	Y19	Z19	X20	Y20	Z20	X21	Y21	Z21	X22	Y22	Z22
591	19.708326289095524	632.3451497121404	1056.95684313994	0.0	603.6793433982516	1062.3967572087327	0.0	602.9179032203956	1173.0107019760424	0.0	597.2904829953028	1288.8134396809764	0.0	586.4127039571911	1330.9896270260224	0.0	576.1233582199155	1325.1290863736808	0.0	599.4430719728236	1305.9356826496637	0.0	660.3961848953102	1063.0243769269975	0.0	653.6535365993154	1169.2880953993747	0.0	636.7173035762414	1256.8689956255766	0.0	642.35250554852	1302.226920680666	0.0	655.5284172673978	1295.3958458177592	0.0	631.5170950686722	1266.9734876822147	0.0	629.2971833188972	890.4653721500223	0.0	624.247827070208	812.2746877044954	0.0	623.4426149917065	879.9073943494126	0.0	572.8123688320104	909.6871444974679	0.0	557.1531123400024	993.088419541354	0.0	550.7455843864873	1070.6236260717324	0.0	688.7845940541549	909.8996736735864	0.0	712.9810212841038	994.1229367214801	0.0	710.3279575555721	1071.2137678631716	0.0
592	19.741673710904482	631.9011928536296	1062.969732896273	0.0	602.6693661875958	1068.557166551386	0.0	602.8654347996702	1182.006054205157	0.0	597.6779769952293	1304.6629437385598	0.0	586.7600787569386	1342.4722721435494	0.0	576.6800935088023	1336.927457401385	0.0	599.1690259468752	1323.1420458379396	0.0	660.4762067059046	1068.9778974738765	0.0	653.6099049304137	1174.4793924073062	0.0	636.9648393465816	1258.3474821434493	0.0	642.304340829276	1303.5234923257715	0.0	655.3944617657379	1295.6038989509116	0.0	631.2381763095768	1267.9617742747482	0.0	629.1169898008301	896.838136751247	0.0	624.2566830047838	819.780811036966	0.0	623.9274723755054	887.3337791155457	0.0	571.9314796913466	914.7267314355857	0.0	556.9521383390021	995.7471964013447	0.0	548.8708183420732	1070.932127827676	0.0	689.0971871365902	915.3758879755329	0.0	711.6048066953142	999.8888879755814	0.0	708.4143754330465	1075.3086342151885	0.0
593	19.775021132713444	631.0308302401679	1069.013916276015	0.0	601.5250568973258	1074.6492583184317	0.0	602.954237646932	1189.534875027687	0.0	598.5191377879078	1316.0426229634606	0.0	589.9902048428482	1353.7009532334278	0.0	579.113612855064	1348.237928289571	0.0	599.4631971744158	1334.8906190408368	0.0	660.3130746281746	1074.7092106538305	0.0	653.7128092819643	1177.7883643909797	0.0	637.9341075977127	1258.930944343535	0.0	642.5461061184927	1304.3492570307935	0.0	655.4601312511035	1295.4649628964326	0.0	631.419536730212	1267.379631333352	0.0	628.8505347327247	903.5863091334654	0.0	624.5772086761356	829.3927454317059	0.0	624.3421046599441	896.4153459453563	0.0	571.1691825767412	919.653939069886	0.0	555.9104249237154	997.279775241362	0.0	547.1463992041851	1070.8568922767756	0.0	689.207493553486	920.6512754442175	0.0	710.1912840011762	1004.7515483565909	0.0	706.7936448750559	1077.5071223216266	0.0
594	19.808368554522403	630.016238824562	1075.0580449647855	0.0	600.3858740908172	1080.2600235704767	0.0	603.1757232460396	1196.3298812081898	0.0	599.4234415472791	1326.7315844970078	0.0	594.0492988473426	1368.6039697256851	0.0	581.7877881847681	1363.3426793288693	0.0	600.4561402207886	1344.9565539328923	0.0	659.6548721702766	1080.1618329078383	0.0	653.5741253020692	1180.4608281668095	0.0	638.9003486431094	1258.797302324783	0.0	643.087521602767	1304.5602304433226	0.0	655.5075209125566	1295.3072788420104	0.0	632.0384898033606	1265.550099135676	0.0	628.4408383821232	909.6825629047173	0.0	623.5702942871796	837.0197004411204	0.0	623.8238171836688	903.3592902389114	0.0	569.9727205656365	924.3776761321436	0.0	554.1780298798774	998.653476855704	0.0	545.6126690616043	1070.942580601132	0.0	688.9780547395204	925.0052926000316	0.0	709.1885040570088	1008.6902055047217	0.0	704.9795227023073	1078.758414051039	0.0
595	19.841715976331365	628.8852521763513	1080.9783672929084	0.0	598.8450374623714	1084.7150784289474	0.0	603.1025433250295	1202.4602677258954	0.0	599.8695704333843	1337.1742095407433	0.0	596.8072030257049	1385.4150247076816	0.0	582.5791092874495	1380.3191071442002	0.0	602.0059064979305	1353.9270757079237	0.0	658.5389328715737	1084.7928719072195	0.0	653.4387119072666	1183.4883734116388	0.0	639.3966860317233	1258.0771662996399	0.0	643.4639699101734	1304.5490584918018	0.0	655.281507037811	1295.3331919172945	0.0	632.496198804112	1263.206216320441	0.0	627.7212635989374	915.0409763839568	0.0	620.1428958879899	840.6694885853931	0.0	621.5903030741955	906.3625628542526	0.0	568.0844696775237	928.6245567220672	0.0	552.4021267462614	1000.9489893516345	0.0	543.872824541613	1071.1131043716184	0.0	688.2957917199766	928.4298963707089	0.0	708.5809448287253	1011.9071395767214	0.0	702.9366952539251	1080.2755805617387	0.0
596	19.875063398140323	627.2799691824197	1085.404100529915	0.0	596.5794650583155	1087.5647533854928	0.0	602.0182755429684	1207.4273048443972	0.0	599.7834599623809	1345.0380380223296	0.0	597.7926361380657	1398.3421946535923	0.0	581.6279882803842	1393.2883284022278	0.0	603.4276229331053	1359.8648646740896	0.0	657.3753890955567	1088.0440099074979	0.0	653.983371266047	1186.895609548029	0.0	639.6312253941452	1256.9907993699142	0.0	643.2235596808381	1304.7676405400384	0.0	654.7936509592355	1295.3236224008194	0.0	632.6385689119115	1260.7408010681472	0.0	626.3545267718307	919.2301176675677	0.0	615.7592786251214	842.0486432459278	0.0	618.4930738379313	907.3092953045627	0.0	565.7529433429496	931.47322151396	0.0	550.7385159373805	1003.6973845093839	0.0	541.5518502673826	1071.4812763683217	0.0	687.1618897576325	930.9279458723519	0.0	708.1372944916824	1014.6964931660261	0.0	701.257472075614	1083.0108974201594	0.0
597	19.908410819949285	625.238176742676	1087.5372482706064	0.0	594.0275919481696	1089.3924037440152	0.0	599.9050907997962	1210.994290449103	0.0	599.6114412495466	1349.0673784672645	0.0	597.7870323932306	1404.2191532917545	0.0	580.4448483791041	1399.1248689982926	0.0	604.458434516171	1362.4732317512673	0.0	656.3826706769282	1090.106511435464	0.0	655.3105634337622	1190.7145802326133	0.0	640.2242567488374	1255.699178022715	0.0	642.8972086590193	1304.8068863930143	0.0	654.7010209489919	1294.7357352838112	0.0	633.1862812208757	1258.4705523488067	0.0	624.533764136757	922.0904165594559	0.0	613.0232462652987	843.4249584839142	0.0	616.6820698906156	909.1736011116265	0.0	563.3218698043958	932.5867964274602	0.0	548.7763418355094	1006.1844834334851	0.0	538.7489423283407	1073.2044863164435	0.0	685.8887719652279	932.5605132554518	0.0	707.8936181860103	1017.5154877120865	0.0	700.2524568507797	1087.2683396923128	0.0
598	19.941758241758244	623.4211974400251	1089.2936926955038	0.0	591.91945899547	1091.623426234526	0.0	597.7983049679993	1213.9695834350098	0.0	599.6566120343665	1350.1216854668355	0.0	597.5860406163052	1405.4384994636334	0.0	579.7962078189208	1399.8299998673797	0.0	605.5128199057242	1363.259604587793	0.0	655.4800415871211	1092.1566793452807	0.0	656.3839558337405	1196.0599009180364	0.0	641.6856480570145	1254.651457199804	0.0	644.3233572884321	1304.5643973504518	0.0	656.4958978587615	1293.7387862988053	0.0	634.7861907584752	1256.998640827703	0.0	623.0548052729813	923.965699506225	0.0	612.4577010188661	844.4513999131884	0.0	616.2041566833035	912.0398512362793	0.0	561.0680387235692	932.9618236033078	0.0	546.3284370589129	1008.8760699181611	0.0	535.9135126707283	1077.360356054512	0.0	685.0393337013825	934.0438654055168	0.0	708.2887575530375	1020.6011636348479	0.0	699.8523238658394	1092.6653625824542	0.0
599	19.975105663567206	622.3907826038919	1092.7357191165654	0.0	590.637806603167	1095.061454995523	0.0	596.4989074063757	1217.779291440016	0.0	599.8400278974265	1350.050170528213	0.0	597.4403215567036	1405.4648185339927	0.0	579.6189403545932	1398.7440034706278	0.0	606.4671042000299	1363.5967886896158	0.0	654.6959666847813	1095.2692327310247	0.0	655.9101193941926	1203.7918869525363	0.0	643.9129241188546	1255.4500493759606	0.0	648.5743029102695	1306.2727765181864	0.0	661.0983874721452	1294.757912288563	0.0	637.2633438232452	1257.7140709018886	0.0	622.2284457069337	924.844326496473	0.0	612.4839502729769	843.6840245858798	0.0	614.8985172415722	913.9765992720651	0.0	559.0363204235168	933.9662376817214	0.0	543.4273091187408	1013.0228790661296	0.0	533.2073512856788	1084.1307517719383	0.0	685.1106115922419	935.9200242895847	0.0	709.599263948847	1023.86073337478	0.0	700.2397322589526	1098.376973431472	0.0
